<?xml version="1.0" encoding="UTF-8"?>
<svg version="1.1" baseProfile="tiny" xmlns="http://www.w3.org/2000/svg" width="84" height="84">
<rect shape-rendering="optimizeSpeed"  x="0" y="0" width="84" height="84" fill="white" />
<rect shape-rendering="optimizeSpeed"  x="0" y="0" width="4" height="4" fill="black" />
<rect shape-rendering="optimizeSpeed"  x="4" y="0" width="4" height="4" fill="black" />
<rect shape-rendering="optimizeSpeed"  x="8" y="0" width="4" height="4" fill="black" />
<rect shape-rendering="optimizeSpeed"  x="12" y="0" width="4" height="4" fill="black" />
<rect shape-rendering="optimizeSpeed"  x="16" y="0" width="4" height="4" fill="black" />
<rect shape-rendering="optimizeSpeed"  x="20" y="0" width="4" height="4" fill="black" />
<rect shape-rendering="optimizeSpeed"  x="24" y="0" width="4" height="4" fill="black" />
<rect shape-rendering="optimizeSpeed"  x="32" y="0" width="4" height="4" fill="black" />
<rect shape-rendering="optimizeSpeed"  x="36" y="0" width="4" height="4" fill="black" />
<rect shape-rendering="optimizeSpeed"  x="48" y="0" width="4" height="4" fill="black" />
<rect shape-rendering="optimizeSpeed"  x="56" y="0" width="4" height="4" fill="black" />
<rect shape-rendering="optimizeSpeed"  x="60" y="0" width="4" height="4" fill="black" />
<rect shape-rendering="optimizeSpeed"  x="64" y="0" width="4" height="4" fill="black" />
<rect shape-rendering="optimizeSpeed"  x="68" y="0" width="4" height="4" fill="black" />
<rect shape-rendering="optimizeSpeed"  x="72" y="0" width="4" height="4" fill="black" />
<rect shape-rendering="optimizeSpeed"  x="76" y="0" width="4" height="4" fill="black" />
<rect shape-rendering="optimizeSpeed"  x="80" y="0" width="4" height="4" fill="black" />
<rect shape-rendering="optimizeSpeed"  x="0" y="4" width="4" height="4" fill="black" />
<rect shape-rendering="optimizeSpeed"  x="24" y="4" width="4" height="4" fill="black" />
<rect shape-rendering="optimizeSpeed"  x="36" y="4" width="4" height="4" fill="black" />
<rect shape-rendering="optimizeSpeed"  x="48" y="4" width="4" height="4" fill="black" />
<rect shape-rendering="optimizeSpeed"  x="56" y="4" width="4" height="4" fill="black" />
<rect shape-rendering="optimizeSpeed"  x="80" y="4" width="4" height="4" fill="black" />
<rect shape-rendering="optimizeSpeed"  x="0" y="8" width="4" height="4" fill="black" />
<rect shape-rendering="optimizeSpeed"  x="8" y="8" width="4" height="4" fill="black" />
<rect shape-rendering="optimizeSpeed"  x="12" y="8" width="4" height="4" fill="black" />
<rect shape-rendering="optimizeSpeed"  x="16" y="8" width="4" height="4" fill="black" />
<rect shape-rendering="optimizeSpeed"  x="24" y="8" width="4" height="4" fill="black" />
<rect shape-rendering="optimizeSpeed"  x="32" y="8" width="4" height="4" fill="black" />
<rect shape-rendering="optimizeSpeed"  x="40" y="8" width="4" height="4" fill="black" />
<rect shape-rendering="optimizeSpeed"  x="48" y="8" width="4" height="4" fill="black" />
<rect shape-rendering="optimizeSpeed"  x="56" y="8" width="4" height="4" fill="black" />
<rect shape-rendering="optimizeSpeed"  x="64" y="8" width="4" height="4" fill="black" />
<rect shape-rendering="optimizeSpeed"  x="68" y="8" width="4" height="4" fill="black" />
<rect shape-rendering="optimizeSpeed"  x="72" y="8" width="4" height="4" fill="black" />
<rect shape-rendering="optimizeSpeed"  x="80" y="8" width="4" height="4" fill="black" />
<rect shape-rendering="optimizeSpeed"  x="0" y="12" width="4" height="4" fill="black" />
<rect shape-rendering="optimizeSpeed"  x="8" y="12" width="4" height="4" fill="black" />
<rect shape-rendering="optimizeSpeed"  x="12" y="12" width="4" height="4" fill="black" />
<rect shape-rendering="optimizeSpeed"  x="16" y="12" width="4" height="4" fill="black" />
<rect shape-rendering="optimizeSpeed"  x="24" y="12" width="4" height="4" fill="black" />
<rect shape-rendering="optimizeSpeed"  x="32" y="12" width="4" height="4" fill="black" />
<rect shape-rendering="optimizeSpeed"  x="44" y="12" width="4" height="4" fill="black" />
<rect shape-rendering="optimizeSpeed"  x="56" y="12" width="4" height="4" fill="black" />
<rect shape-rendering="optimizeSpeed"  x="64" y="12" width="4" height="4" fill="black" />
<rect shape-rendering="optimizeSpeed"  x="68" y="12" width="4" height="4" fill="black" />
<rect shape-rendering="optimizeSpeed"  x="72" y="12" width="4" height="4" fill="black" />
<rect shape-rendering="optimizeSpeed"  x="80" y="12" width="4" height="4" fill="black" />
<rect shape-rendering="optimizeSpeed"  x="0" y="16" width="4" height="4" fill="black" />
<rect shape-rendering="optimizeSpeed"  x="8" y="16" width="4" height="4" fill="black" />
<rect shape-rendering="optimizeSpeed"  x="12" y="16" width="4" height="4" fill="black" />
<rect shape-rendering="optimizeSpeed"  x="16" y="16" width="4" height="4" fill="black" />
<rect shape-rendering="optimizeSpeed"  x="24" y="16" width="4" height="4" fill="black" />
<rect shape-rendering="optimizeSpeed"  x="32" y="16" width="4" height="4" fill="black" />
<rect shape-rendering="optimizeSpeed"  x="36" y="16" width="4" height="4" fill="black" />
<rect shape-rendering="optimizeSpeed"  x="40" y="16" width="4" height="4" fill="black" />
<rect shape-rendering="optimizeSpeed"  x="56" y="16" width="4" height="4" fill="black" />
<rect shape-rendering="optimizeSpeed"  x="64" y="16" width="4" height="4" fill="black" />
<rect shape-rendering="optimizeSpeed"  x="68" y="16" width="4" height="4" fill="black" />
<rect shape-rendering="optimizeSpeed"  x="72" y="16" width="4" height="4" fill="black" />
<rect shape-rendering="optimizeSpeed"  x="80" y="16" width="4" height="4" fill="black" />
<rect shape-rendering="optimizeSpeed"  x="0" y="20" width="4" height="4" fill="black" />
<rect shape-rendering="optimizeSpeed"  x="24" y="20" width="4" height="4" fill="black" />
<rect shape-rendering="optimizeSpeed"  x="56" y="20" width="4" height="4" fill="black" />
<rect shape-rendering="optimizeSpeed"  x="80" y="20" width="4" height="4" fill="black" />
<rect shape-rendering="optimizeSpeed"  x="0" y="24" width="4" height="4" fill="black" />
<rect shape-rendering="optimizeSpeed"  x="4" y="24" width="4" height="4" fill="black" />
<rect shape-rendering="optimizeSpeed"  x="8" y="24" width="4" height="4" fill="black" />
<rect shape-rendering="optimizeSpeed"  x="12" y="24" width="4" height="4" fill="black" />
<rect shape-rendering="optimizeSpeed"  x="16" y="24" width="4" height="4" fill="black" />
<rect shape-rendering="optimizeSpeed"  x="20" y="24" width="4" height="4" fill="black" />
<rect shape-rendering="optimizeSpeed"  x="24" y="24" width="4" height="4" fill="black" />
<rect shape-rendering="optimizeSpeed"  x="32" y="24" width="4" height="4" fill="black" />
<rect shape-rendering="optimizeSpeed"  x="40" y="24" width="4" height="4" fill="black" />
<rect shape-rendering="optimizeSpeed"  x="48" y="24" width="4" height="4" fill="black" />
<rect shape-rendering="optimizeSpeed"  x="56" y="24" width="4" height="4" fill="black" />
<rect shape-rendering="optimizeSpeed"  x="60" y="24" width="4" height="4" fill="black" />
<rect shape-rendering="optimizeSpeed"  x="64" y="24" width="4" height="4" fill="black" />
<rect shape-rendering="optimizeSpeed"  x="68" y="24" width="4" height="4" fill="black" />
<rect shape-rendering="optimizeSpeed"  x="72" y="24" width="4" height="4" fill="black" />
<rect shape-rendering="optimizeSpeed"  x="76" y="24" width="4" height="4" fill="black" />
<rect shape-rendering="optimizeSpeed"  x="80" y="24" width="4" height="4" fill="black" />
<rect shape-rendering="optimizeSpeed"  x="36" y="28" width="4" height="4" fill="black" />
<rect shape-rendering="optimizeSpeed"  x="40" y="28" width="4" height="4" fill="black" />
<rect shape-rendering="optimizeSpeed"  x="0" y="32" width="4" height="4" fill="black" />
<rect shape-rendering="optimizeSpeed"  x="4" y="32" width="4" height="4" fill="black" />
<rect shape-rendering="optimizeSpeed"  x="8" y="32" width="4" height="4" fill="black" />
<rect shape-rendering="optimizeSpeed"  x="12" y="32" width="4" height="4" fill="black" />
<rect shape-rendering="optimizeSpeed"  x="24" y="32" width="4" height="4" fill="black" />
<rect shape-rendering="optimizeSpeed"  x="32" y="32" width="4" height="4" fill="black" />
<rect shape-rendering="optimizeSpeed"  x="40" y="32" width="4" height="4" fill="black" />
<rect shape-rendering="optimizeSpeed"  x="52" y="32" width="4" height="4" fill="black" />
<rect shape-rendering="optimizeSpeed"  x="64" y="32" width="4" height="4" fill="black" />
<rect shape-rendering="optimizeSpeed"  x="68" y="32" width="4" height="4" fill="black" />
<rect shape-rendering="optimizeSpeed"  x="72" y="32" width="4" height="4" fill="black" />
<rect shape-rendering="optimizeSpeed"  x="80" y="32" width="4" height="4" fill="black" />
<rect shape-rendering="optimizeSpeed"  x="0" y="36" width="4" height="4" fill="black" />
<rect shape-rendering="optimizeSpeed"  x="16" y="36" width="4" height="4" fill="black" />
<rect shape-rendering="optimizeSpeed"  x="20" y="36" width="4" height="4" fill="black" />
<rect shape-rendering="optimizeSpeed"  x="36" y="36" width="4" height="4" fill="black" />
<rect shape-rendering="optimizeSpeed"  x="40" y="36" width="4" height="4" fill="black" />
<rect shape-rendering="optimizeSpeed"  x="48" y="36" width="4" height="4" fill="black" />
<rect shape-rendering="optimizeSpeed"  x="52" y="36" width="4" height="4" fill="black" />
<rect shape-rendering="optimizeSpeed"  x="60" y="36" width="4" height="4" fill="black" />
<rect shape-rendering="optimizeSpeed"  x="64" y="36" width="4" height="4" fill="black" />
<rect shape-rendering="optimizeSpeed"  x="72" y="36" width="4" height="4" fill="black" />
<rect shape-rendering="optimizeSpeed"  x="76" y="36" width="4" height="4" fill="black" />
<rect shape-rendering="optimizeSpeed"  x="0" y="40" width="4" height="4" fill="black" />
<rect shape-rendering="optimizeSpeed"  x="8" y="40" width="4" height="4" fill="black" />
<rect shape-rendering="optimizeSpeed"  x="16" y="40" width="4" height="4" fill="black" />
<rect shape-rendering="optimizeSpeed"  x="20" y="40" width="4" height="4" fill="black" />
<rect shape-rendering="optimizeSpeed"  x="24" y="40" width="4" height="4" fill="black" />
<rect shape-rendering="optimizeSpeed"  x="36" y="40" width="4" height="4" fill="black" />
<rect shape-rendering="optimizeSpeed"  x="48" y="40" width="4" height="4" fill="black" />
<rect shape-rendering="optimizeSpeed"  x="52" y="40" width="4" height="4" fill="black" />
<rect shape-rendering="optimizeSpeed"  x="60" y="40" width="4" height="4" fill="black" />
<rect shape-rendering="optimizeSpeed"  x="72" y="40" width="4" height="4" fill="black" />
<rect shape-rendering="optimizeSpeed"  x="76" y="40" width="4" height="4" fill="black" />
<rect shape-rendering="optimizeSpeed"  x="80" y="40" width="4" height="4" fill="black" />
<rect shape-rendering="optimizeSpeed"  x="0" y="44" width="4" height="4" fill="black" />
<rect shape-rendering="optimizeSpeed"  x="12" y="44" width="4" height="4" fill="black" />
<rect shape-rendering="optimizeSpeed"  x="16" y="44" width="4" height="4" fill="black" />
<rect shape-rendering="optimizeSpeed"  x="20" y="44" width="4" height="4" fill="black" />
<rect shape-rendering="optimizeSpeed"  x="40" y="44" width="4" height="4" fill="black" />
<rect shape-rendering="optimizeSpeed"  x="48" y="44" width="4" height="4" fill="black" />
<rect shape-rendering="optimizeSpeed"  x="60" y="44" width="4" height="4" fill="black" />
<rect shape-rendering="optimizeSpeed"  x="64" y="44" width="4" height="4" fill="black" />
<rect shape-rendering="optimizeSpeed"  x="68" y="44" width="4" height="4" fill="black" />
<rect shape-rendering="optimizeSpeed"  x="76" y="44" width="4" height="4" fill="black" />
<rect shape-rendering="optimizeSpeed"  x="80" y="44" width="4" height="4" fill="black" />
<rect shape-rendering="optimizeSpeed"  x="4" y="48" width="4" height="4" fill="black" />
<rect shape-rendering="optimizeSpeed"  x="24" y="48" width="4" height="4" fill="black" />
<rect shape-rendering="optimizeSpeed"  x="28" y="48" width="4" height="4" fill="black" />
<rect shape-rendering="optimizeSpeed"  x="36" y="48" width="4" height="4" fill="black" />
<rect shape-rendering="optimizeSpeed"  x="44" y="48" width="4" height="4" fill="black" />
<rect shape-rendering="optimizeSpeed"  x="56" y="48" width="4" height="4" fill="black" />
<rect shape-rendering="optimizeSpeed"  x="60" y="48" width="4" height="4" fill="black" />
<rect shape-rendering="optimizeSpeed"  x="64" y="48" width="4" height="4" fill="black" />
<rect shape-rendering="optimizeSpeed"  x="72" y="48" width="4" height="4" fill="black" />
<rect shape-rendering="optimizeSpeed"  x="76" y="48" width="4" height="4" fill="black" />
<rect shape-rendering="optimizeSpeed"  x="32" y="52" width="4" height="4" fill="black" />
<rect shape-rendering="optimizeSpeed"  x="40" y="52" width="4" height="4" fill="black" />
<rect shape-rendering="optimizeSpeed"  x="44" y="52" width="4" height="4" fill="black" />
<rect shape-rendering="optimizeSpeed"  x="64" y="52" width="4" height="4" fill="black" />
<rect shape-rendering="optimizeSpeed"  x="68" y="52" width="4" height="4" fill="black" />
<rect shape-rendering="optimizeSpeed"  x="72" y="52" width="4" height="4" fill="black" />
<rect shape-rendering="optimizeSpeed"  x="80" y="52" width="4" height="4" fill="black" />
<rect shape-rendering="optimizeSpeed"  x="0" y="56" width="4" height="4" fill="black" />
<rect shape-rendering="optimizeSpeed"  x="4" y="56" width="4" height="4" fill="black" />
<rect shape-rendering="optimizeSpeed"  x="8" y="56" width="4" height="4" fill="black" />
<rect shape-rendering="optimizeSpeed"  x="12" y="56" width="4" height="4" fill="black" />
<rect shape-rendering="optimizeSpeed"  x="16" y="56" width="4" height="4" fill="black" />
<rect shape-rendering="optimizeSpeed"  x="20" y="56" width="4" height="4" fill="black" />
<rect shape-rendering="optimizeSpeed"  x="24" y="56" width="4" height="4" fill="black" />
<rect shape-rendering="optimizeSpeed"  x="60" y="56" width="4" height="4" fill="black" />
<rect shape-rendering="optimizeSpeed"  x="64" y="56" width="4" height="4" fill="black" />
<rect shape-rendering="optimizeSpeed"  x="0" y="60" width="4" height="4" fill="black" />
<rect shape-rendering="optimizeSpeed"  x="24" y="60" width="4" height="4" fill="black" />
<rect shape-rendering="optimizeSpeed"  x="36" y="60" width="4" height="4" fill="black" />
<rect shape-rendering="optimizeSpeed"  x="40" y="60" width="4" height="4" fill="black" />
<rect shape-rendering="optimizeSpeed"  x="48" y="60" width="4" height="4" fill="black" />
<rect shape-rendering="optimizeSpeed"  x="52" y="60" width="4" height="4" fill="black" />
<rect shape-rendering="optimizeSpeed"  x="60" y="60" width="4" height="4" fill="black" />
<rect shape-rendering="optimizeSpeed"  x="68" y="60" width="4" height="4" fill="black" />
<rect shape-rendering="optimizeSpeed"  x="72" y="60" width="4" height="4" fill="black" />
<rect shape-rendering="optimizeSpeed"  x="0" y="64" width="4" height="4" fill="black" />
<rect shape-rendering="optimizeSpeed"  x="8" y="64" width="4" height="4" fill="black" />
<rect shape-rendering="optimizeSpeed"  x="12" y="64" width="4" height="4" fill="black" />
<rect shape-rendering="optimizeSpeed"  x="16" y="64" width="4" height="4" fill="black" />
<rect shape-rendering="optimizeSpeed"  x="24" y="64" width="4" height="4" fill="black" />
<rect shape-rendering="optimizeSpeed"  x="36" y="64" width="4" height="4" fill="black" />
<rect shape-rendering="optimizeSpeed"  x="48" y="64" width="4" height="4" fill="black" />
<rect shape-rendering="optimizeSpeed"  x="52" y="64" width="4" height="4" fill="black" />
<rect shape-rendering="optimizeSpeed"  x="60" y="64" width="4" height="4" fill="black" />
<rect shape-rendering="optimizeSpeed"  x="68" y="64" width="4" height="4" fill="black" />
<rect shape-rendering="optimizeSpeed"  x="76" y="64" width="4" height="4" fill="black" />
<rect shape-rendering="optimizeSpeed"  x="0" y="68" width="4" height="4" fill="black" />
<rect shape-rendering="optimizeSpeed"  x="8" y="68" width="4" height="4" fill="black" />
<rect shape-rendering="optimizeSpeed"  x="12" y="68" width="4" height="4" fill="black" />
<rect shape-rendering="optimizeSpeed"  x="16" y="68" width="4" height="4" fill="black" />
<rect shape-rendering="optimizeSpeed"  x="24" y="68" width="4" height="4" fill="black" />
<rect shape-rendering="optimizeSpeed"  x="32" y="68" width="4" height="4" fill="black" />
<rect shape-rendering="optimizeSpeed"  x="36" y="68" width="4" height="4" fill="black" />
<rect shape-rendering="optimizeSpeed"  x="48" y="68" width="4" height="4" fill="black" />
<rect shape-rendering="optimizeSpeed"  x="64" y="68" width="4" height="4" fill="black" />
<rect shape-rendering="optimizeSpeed"  x="68" y="68" width="4" height="4" fill="black" />
<rect shape-rendering="optimizeSpeed"  x="72" y="68" width="4" height="4" fill="black" />
<rect shape-rendering="optimizeSpeed"  x="76" y="68" width="4" height="4" fill="black" />
<rect shape-rendering="optimizeSpeed"  x="0" y="72" width="4" height="4" fill="black" />
<rect shape-rendering="optimizeSpeed"  x="8" y="72" width="4" height="4" fill="black" />
<rect shape-rendering="optimizeSpeed"  x="12" y="72" width="4" height="4" fill="black" />
<rect shape-rendering="optimizeSpeed"  x="16" y="72" width="4" height="4" fill="black" />
<rect shape-rendering="optimizeSpeed"  x="24" y="72" width="4" height="4" fill="black" />
<rect shape-rendering="optimizeSpeed"  x="32" y="72" width="4" height="4" fill="black" />
<rect shape-rendering="optimizeSpeed"  x="36" y="72" width="4" height="4" fill="black" />
<rect shape-rendering="optimizeSpeed"  x="44" y="72" width="4" height="4" fill="black" />
<rect shape-rendering="optimizeSpeed"  x="48" y="72" width="4" height="4" fill="black" />
<rect shape-rendering="optimizeSpeed"  x="68" y="72" width="4" height="4" fill="black" />
<rect shape-rendering="optimizeSpeed"  x="72" y="72" width="4" height="4" fill="black" />
<rect shape-rendering="optimizeSpeed"  x="0" y="76" width="4" height="4" fill="black" />
<rect shape-rendering="optimizeSpeed"  x="24" y="76" width="4" height="4" fill="black" />
<rect shape-rendering="optimizeSpeed"  x="32" y="76" width="4" height="4" fill="black" />
<rect shape-rendering="optimizeSpeed"  x="36" y="76" width="4" height="4" fill="black" />
<rect shape-rendering="optimizeSpeed"  x="40" y="76" width="4" height="4" fill="black" />
<rect shape-rendering="optimizeSpeed"  x="52" y="76" width="4" height="4" fill="black" />
<rect shape-rendering="optimizeSpeed"  x="56" y="76" width="4" height="4" fill="black" />
<rect shape-rendering="optimizeSpeed"  x="68" y="76" width="4" height="4" fill="black" />
<rect shape-rendering="optimizeSpeed"  x="80" y="76" width="4" height="4" fill="black" />
<rect shape-rendering="optimizeSpeed"  x="0" y="80" width="4" height="4" fill="black" />
<rect shape-rendering="optimizeSpeed"  x="4" y="80" width="4" height="4" fill="black" />
<rect shape-rendering="optimizeSpeed"  x="8" y="80" width="4" height="4" fill="black" />
<rect shape-rendering="optimizeSpeed"  x="12" y="80" width="4" height="4" fill="black" />
<rect shape-rendering="optimizeSpeed"  x="16" y="80" width="4" height="4" fill="black" />
<rect shape-rendering="optimizeSpeed"  x="20" y="80" width="4" height="4" fill="black" />
<rect shape-rendering="optimizeSpeed"  x="24" y="80" width="4" height="4" fill="black" />
<rect shape-rendering="optimizeSpeed"  x="32" y="80" width="4" height="4" fill="black" />
<rect shape-rendering="optimizeSpeed"  x="52" y="80" width="4" height="4" fill="black" />
<rect shape-rendering="optimizeSpeed"  x="56" y="80" width="4" height="4" fill="black" />
<rect shape-rendering="optimizeSpeed"  x="64" y="80" width="4" height="4" fill="black" />
<rect shape-rendering="optimizeSpeed"  x="72" y="80" width="4" height="4" fill="black" /></svg>